# xmcd CD database file
#
# Track frame offsets:
#	150
#	14363
#	25519
#	42192
#	55736
#	70909
#	88977
#	100833
#	115095
#	134399
#	146795
#	160972
#	180192
#	192857
#
# Disc length: 2909 seconds
#
# Revision: 2
# Processed by: cddbd v1.5.1PL0 Copyright (c) Steve Scherf et al.
# Submitted via: CDex 1.51
#
DISCID=b60b5b0e
DTITLE=Nora Jones - Come Away With Me
DYEAR=2002
DGENRE=Jazz
TTITLE0=Don't Know Why
TTITLE1=Seven Years
TTITLE2=Cold Cold Heart
TTITLE3=Feelin' The Same Way
TTITLE4=Come Away With Me
TTITLE5=Shoot The Moon
TTITLE6=Turn Me On
TTITLE7=Lonestar 
TTITLE8=I've Got To See You Again
TTITLE9=Painter Song
TTITLE10=One Flight Down
TTITLE11=Nightingale 
TTITLE12=The Long Day Is Over
TTITLE13=The Nearness Of You
EXTD=YEAR: 2002
EXTT0=
EXTT1=
EXTT2=
EXTT3=
EXTT4=
EXTT5=
EXTT6=
EXTT7=
EXTT8=
EXTT9=
EXTT10=
EXTT11=
EXTT12=
EXTT13=
PLAYORDER=
